<svg version="1.1" xmlns="http://www.w3.org/2000/svg" xmlns:xlink="http://www.w3.org/1999/xlink" width="603.43306" height="98.06284" viewBox="0,0,603.43306,98.06284"><g transform="translate(88.8399,-126.96858)"><g data-paper-data="{&quot;isPaintingLayer&quot;:true}" stroke-miterlimit="10" stroke-dasharray="" stroke-dashoffset="0" style="mix-blend-mode: normal"><path d="M-46.3399,128.96858c17.45502,-0.29352 59.4055,0 59.4055,0v0h149.85828h349.66928v41.35695c0,0 2.20645,29.20736 -37.83333,29.54069c-53.70345,0.44708 -311.83595,0 -311.83595,0l-185.75479,22.16519l35.89652,-22.16519h-99.9055v-11.81628v-17.72441v0c0,0 0.85465,-40.69028 40.5,-41.35695z" fill="#d9ead3" fill-rule="evenodd" stroke="none" stroke-width="1" stroke-linecap="square" stroke-linejoin="miter"/><path d="M-49.3399,128.96858c18.15893,-0.55448 62.4055,0 62.4055,0v0h149.85828h349.66928v41.35695v0c0,0 -1.20341,29.54069 -40.83333,29.54069c-54.90196,0 -308.83595,0 -308.83595,0l-189.75479,23.16519l39.89652,-23.16519h-99.9055v-11.81628v-17.72441c0,0 4.75027,-40.35695 37.5,-41.35695z" fill="none" fill-rule="evenodd" stroke="#b7b7b7" stroke-width="4" stroke-linecap="butt" stroke-linejoin="round"/><path d="M-62.95685,180.85235c-1.46875,0 -2.72396,-0.52083 -3.76562,-1.5625c-1.04167,-1.04167 -1.5625,-2.29687 -1.5625,-3.76562v-0.85937h5.0625v0.23438c0,0.41667 0.04167,0.67188 0.125,0.76563c0.09375,0.08333 0.34896,0.125 0.76563,0.125h10.85938c0.41667,0 0.66667,-0.04167 0.75,-0.125c0.09375,-0.09375 0.14063,-0.34896 0.14063,-0.76562v-1.8125c0,-0.41667 -0.04687,-0.66667 -0.14062,-0.75c-0.08333,-0.09375 -0.33333,-0.14062 -0.75,-0.14062h-11.48437c-1.46875,0 -2.72396,-0.52604 -3.76562,-1.57812c-1.04167,-1.0625 -1.5625,-2.31771 -1.5625,-3.76562v-3.09375c0,-1.46875 0.52083,-2.72396 1.5625,-3.76562c1.04167,-1.04167 2.29688,-1.5625 3.76563,-1.5625h12.10938c1.46875,0 2.72917,0.52083 3.78125,1.5625c1.05208,1.04167 1.57813,2.29688 1.57813,3.76563v0.85938h-5.09375v-0.23437c0,-0.41667 -0.04687,-0.66667 -0.14062,-0.75c-0.08333,-0.09375 -0.33333,-0.14062 -0.75,-0.14062h-10.85937c-0.41667,0 -0.67187,0.04688 -0.76562,0.14063c-0.08333,0.08333 -0.125,0.33333 -0.125,0.75v1.8125c0,0.41667 0.04167,0.67188 0.125,0.76563c0.09375,0.08333 0.34896,0.125 0.76563,0.125h11.48438c1.46875,0 2.72917,0.53125 3.78125,1.59375c1.05208,1.05208 1.57813,2.30208 1.57813,3.75v3.09375c0,1.46875 -0.52604,2.72396 -1.57812,3.76563c-1.05208,1.04167 -2.3125,1.5625 -3.78125,1.5625zM-41.61054,180.85235v-22.42187h5.0625v22.42188zM-41.61054,156.1961v-5.10937h5.0625v5.10938zM-32.21686,180.85235v-17.09375c0,-1.46875 0.52083,-2.72396 1.5625,-3.76562c1.04167,-1.04167 2.29688,-1.5625 3.76563,-1.5625h12.45313v5.0625h-11.375c-0.71875,0 -1.125,0.04688 -1.21875,0.14063c-0.08333,0.08333 -0.125,0.48958 -0.125,1.21875v16zM-6.66409,180.85235c-1.46875,0 -2.72917,-0.52083 -3.78125,-1.5625c-1.04167,-1.04167 -1.5625,-2.29687 -1.5625,-3.76562v-11.76562c0,-1.46875 0.52083,-2.72396 1.5625,-3.76562c1.05208,-1.04167 2.3125,-1.5625 3.78125,-1.5625h12.09375c1.46875,0 2.72396,0.52083 3.76563,1.5625c1.04167,1.04167 1.5625,2.29688 1.5625,3.76563v11.76563c0,1.46875 -0.52083,2.72396 -1.5625,3.76563c-1.04167,1.04167 -2.29687,1.5625 -3.76562,1.5625zM-5.58597,175.78985h9.9375c0.71875,0 1.11979,-0.04167 1.20313,-0.125c0.09375,-0.09375 0.14063,-0.50521 0.14063,-1.23437v-9.57812c0,-0.72917 -0.04687,-1.13542 -0.14062,-1.21875c-0.08333,-0.09375 -0.48437,-0.14062 -1.20312,-0.14062h-9.9375c-0.71875,0 -1.125,0.04688 -1.21875,0.14063c-0.09375,0.08333 -0.14062,0.48958 -0.14062,1.21875v9.57813c0,0.72917 0.04688,1.14063 0.14063,1.23438c0.09375,0.08333 0.5,0.125 1.21875,0.125zM14.86728,180.85235v-29.76562h5.0625v16h3.98438l8,-8.65625h5.40625v1.39063l-8.9375,9.82813l8.90625,9.8125v1.39063h-5.375l-8,-8.65625h-3.98437v8.65625zM45.13608,180.85235c-1.46875,0 -2.72917,-0.52083 -3.78125,-1.5625c-1.04167,-1.04167 -1.5625,-2.29687 -1.5625,-3.76562v-17.09375h5.0625v16c0,0.72917 0.04688,1.14063 0.14063,1.23438c0.09375,0.08333 0.5,0.125 1.21875,0.125h9.9375c0.71875,0 1.11979,-0.04167 1.20313,-0.125c0.09375,-0.09375 0.14063,-0.50521 0.14063,-1.23437v-16h5.0625v17.09375c0,1.46875 -0.52083,2.72396 -1.5625,3.76563c-1.04167,1.04167 -2.29687,1.5625 -3.76562,1.5625zM66.62716,180.85235v-17.09375c0,-1.46875 0.52083,-2.72396 1.5625,-3.76562c1.04167,-1.04167 2.29688,-1.5625 3.76563,-1.5625h12.45313v5.0625h-11.375c-0.71875,0 -1.125,0.04688 -1.21875,0.14063c-0.08333,0.08333 -0.125,0.48958 -0.125,1.21875v16zM92.17993,180.85235c-1.46875,0 -2.72917,-0.52083 -3.78125,-1.5625c-1.04167,-1.04167 -1.5625,-2.29687 -1.5625,-3.76562v-11.76562c0,-1.46875 0.52083,-2.72396 1.5625,-3.76562c1.05208,-1.04167 2.3125,-1.5625 3.78125,-1.5625h12.09375c1.46875,0 2.72396,0.52083 3.76563,1.5625c1.04167,1.04167 1.5625,2.29688 1.5625,3.76563v11.76563c0,1.46875 -0.52083,2.72396 -1.5625,3.76563c-1.04167,1.04167 -2.29687,1.5625 -3.76562,1.5625zM93.25806,175.78985h9.9375c0.71875,0 1.11979,-0.04167 1.20313,-0.125c0.09375,-0.09375 0.14063,-0.50521 0.14063,-1.23437v-9.57812c0,-0.72917 -0.04687,-1.13542 -0.14062,-1.21875c-0.08333,-0.09375 -0.48437,-0.14062 -1.20312,-0.14062h-9.9375c-0.71875,0 -1.125,0.04688 -1.21875,0.14063c-0.09375,0.08333 -0.14062,0.48958 -0.14062,1.21875v9.57813c0,0.72917 0.04688,1.14063 0.14063,1.23438c0.09375,0.08333 0.5,0.125 1.21875,0.125zM113.7113,180.85235v-29.76562h5.0625v16h3.98438l8,-8.65625h5.40625v1.39063l-8.9375,9.82813l8.90625,9.8125v1.39063h-5.375l-8,-8.65625h-3.98437v8.65625zM143.9801,180.85235c-1.46875,0 -2.72917,-0.52083 -3.78125,-1.5625c-1.04167,-1.04167 -1.5625,-2.29687 -1.5625,-3.76562v-17.09375h5.0625v16c0,0.72917 0.04688,1.14063 0.14063,1.23438c0.09375,0.08333 0.5,0.125 1.21875,0.125h9.9375c0.71875,0 1.11979,-0.04167 1.20313,-0.125c0.09375,-0.09375 0.14063,-0.50521 0.14063,-1.23437v-16h5.0625v17.09375c0,1.46875 -0.52083,2.72396 -1.5625,3.76563c-1.04167,1.04167 -2.29687,1.5625 -3.76562,1.5625zM164.58264,180.85235v-22.42187h27.78125c1.46875,0 2.72396,0.52083 3.76563,1.5625c1.05208,1.04167 1.57813,2.29688 1.57813,3.76563v17.09375h-5.03125v-16c0,-0.72917 -0.05208,-1.13542 -0.15625,-1.21875c-0.10417,-0.09375 -0.5,-0.14062 -1.1875,-0.14062h-6.26562c-0.71875,0 -1.125,0.04688 -1.21875,0.14063c-0.09375,0.08333 -0.14062,0.48958 -0.14062,1.21875v16h-5.09375v-16c0,-0.72917 -0.04687,-1.13542 -0.14062,-1.21875c-0.09375,-0.09375 -0.5,-0.14062 -1.21875,-0.14062h-6.26562c-0.71875,0 -1.125,0.04688 -1.21875,0.14063c-0.08333,0.08333 -0.125,0.48958 -0.125,1.21875v16zM206.82645,180.85235c-1.46875,0 -2.72396,-0.52083 -3.76562,-1.5625c-1.04167,-1.04167 -1.5625,-2.29687 -1.5625,-3.76562v-8.4375h17.70313v-2.23437c0,-0.72917 -0.04687,-1.13542 -0.14062,-1.21875c-0.09375,-0.09375 -0.5,-0.14062 -1.21875,-0.14062h-16.34375v-5.0625h17.42188c1.46875,0 2.72396,0.52083 3.76563,1.5625c1.05208,1.04167 1.57813,2.29688 1.57813,3.76563v17.09375zM207.90457,175.78985h11.29688v-4.14062h-12.64062v2.78125c0,0.72917 0.04167,1.14063 0.125,1.23438c0.09375,0.08333 0.5,0.125 1.21875,0.125zM232.647,180.85235c-1.46875,0 -2.72396,-0.52083 -3.76562,-1.5625c-1.04167,-1.04167 -1.5625,-2.29687 -1.5625,-3.76562v-0.85937h5.0625v0.23438c0,0.41667 0.04167,0.67188 0.125,0.76563c0.09375,0.08333 0.34896,0.125 0.76563,0.125h10.85938c0.41667,0 0.66667,-0.04167 0.75,-0.125c0.09375,-0.09375 0.14063,-0.34896 0.14063,-0.76562v-1.8125c0,-0.41667 -0.04687,-0.66667 -0.14062,-0.75c-0.08333,-0.09375 -0.33333,-0.14062 -0.75,-0.14062h-11.48437c-1.46875,0 -2.72396,-0.52604 -3.76562,-1.57812c-1.04167,-1.0625 -1.5625,-2.31771 -1.5625,-3.76562v-3.09375c0,-1.46875 0.52083,-2.72396 1.5625,-3.76562c1.04167,-1.04167 2.29688,-1.5625 3.76563,-1.5625h12.10938c1.46875,0 2.72917,0.52083 3.78125,1.5625c1.05208,1.04167 1.57813,2.29688 1.57813,3.76563v0.85938h-5.09375v-0.23437c0,-0.41667 -0.04687,-0.66667 -0.14062,-0.75c-0.08333,-0.09375 -0.33333,-0.14062 -0.75,-0.14062h-10.85937c-0.41667,0 -0.67187,0.04688 -0.76562,0.14063c-0.08333,0.08333 -0.125,0.33333 -0.125,0.75v1.8125c0,0.41667 0.04167,0.67188 0.125,0.76563c0.09375,0.08333 0.34896,0.125 0.76563,0.125h11.48438c1.46875,0 2.72917,0.53125 3.78125,1.59375c1.05208,1.05208 1.57813,2.30208 1.57813,3.75v3.09375c0,1.46875 -0.52604,2.72396 -1.57812,3.76563c-1.05208,1.04167 -2.3125,1.5625 -3.78125,1.5625zM259.32144,180.85235c-1.46875,0 -2.72396,-0.52083 -3.76562,-1.5625c-1.04167,-1.04167 -1.5625,-2.29687 -1.5625,-3.76562v-8.4375h17.70313v-2.23437c0,-0.72917 -0.04687,-1.13542 -0.14062,-1.21875c-0.09375,-0.09375 -0.5,-0.14062 -1.21875,-0.14062h-16.34375v-5.0625h17.42188c1.46875,0 2.72396,0.52083 3.76563,1.5625c1.05208,1.04167 1.57813,2.29688 1.57813,3.76563v17.09375zM260.39957,175.78985h11.29688v-4.14062h-12.64062v2.78125c0,0.72917 0.04167,1.14063 0.125,1.23438c0.09375,0.08333 0.5,0.125 1.21875,0.125zM280.47354,180.85235v-22.42187h17.42188c1.46875,0 2.72396,0.52083 3.76563,1.5625c1.05208,1.04167 1.57813,2.29688 1.57813,3.76563v17.09375h-5.0625v-16c0,-0.72917 -0.04687,-1.13542 -0.14062,-1.21875c-0.09375,-0.09375 -0.5,-0.14062 -1.21875,-0.14062h-9.9375c-0.71875,0 -1.125,0.04688 -1.21875,0.14063c-0.08333,0.08333 -0.125,0.48958 -0.125,1.21875v16zM307.37826,163.22735v-9.85937h5.0625v4.51563c0,1.29167 -0.48437,2.4375 -1.45312,3.4375c-0.96875,0.98958 -2.17187,1.625 -3.60937,1.90625zM320.82175,180.85235c-1.46875,0 -2.72396,-0.52083 -3.76562,-1.5625c-1.04167,-1.04167 -1.5625,-2.29687 -1.5625,-3.76562v-0.85937h5.0625v0.23438c0,0.41667 0.04167,0.67188 0.125,0.76563c0.09375,0.08333 0.34896,0.125 0.76563,0.125h10.85938c0.41667,0 0.66667,-0.04167 0.75,-0.125c0.09375,-0.09375 0.14063,-0.34896 0.14063,-0.76562v-1.8125c0,-0.41667 -0.04687,-0.66667 -0.14062,-0.75c-0.08333,-0.09375 -0.33333,-0.14062 -0.75,-0.14062h-11.48437c-1.46875,0 -2.72396,-0.52604 -3.76562,-1.57812c-1.04167,-1.0625 -1.5625,-2.31771 -1.5625,-3.76562v-3.09375c0,-1.46875 0.52083,-2.72396 1.5625,-3.76562c1.04167,-1.04167 2.29688,-1.5625 3.76563,-1.5625h12.10938c1.46875,0 2.72917,0.52083 3.78125,1.5625c1.05208,1.04167 1.57813,2.29688 1.57813,3.76563v0.85938h-5.09375v-0.23437c0,-0.41667 -0.04687,-0.66667 -0.14062,-0.75c-0.08333,-0.09375 -0.33333,-0.14062 -0.75,-0.14062h-10.85937c-0.41667,0 -0.67187,0.04688 -0.76562,0.14063c-0.08333,0.08333 -0.125,0.33333 -0.125,0.75v1.8125c0,0.41667 0.04167,0.67188 0.125,0.76563c0.09375,0.08333 0.34896,0.125 0.76563,0.125h11.48438c1.46875,0 2.72917,0.53125 3.78125,1.59375c1.05208,1.05208 1.57813,2.30208 1.57813,3.75v3.09375c0,1.46875 -0.52604,2.72396 -1.57812,3.76563c-1.05208,1.04167 -2.3125,1.5625 -3.78125,1.5625zM354.26248,180.85235v-27.82812h21.34375c1.46875,0 2.72917,0.53125 3.78125,1.59375c1.05208,1.05208 1.57813,2.3125 1.57813,3.78125v5.4375c0,0.34375 -0.02604,0.67188 -0.07812,0.98438c-0.04167,0.30208 -0.13021,0.59375 -0.26562,0.875c0.4375,0.59375 0.79167,1.21354 1.0625,1.85938c0.27083,0.64583 0.40625,1.29167 0.40625,1.9375v5.98438c0,1.46875 -0.53125,2.73438 -1.59375,3.79688c-1.05208,1.05208 -2.32292,1.57813 -3.8125,1.57813zM360.71561,175.71173h14.89063c0.6875,0 1.08333,-0.04167 1.1875,-0.125c0.10417,-0.09375 0.15625,-0.50521 0.15625,-1.23437v-3.75c0,-0.71875 -0.05208,-1.11979 -0.15625,-1.20312c-0.10417,-0.09375 -0.5,-0.14062 -1.1875,-0.14062h-14.89062c-0.71875,0 -1.125,0.04688 -1.21875,0.14063c-0.08333,0.08333 -0.125,0.48438 -0.125,1.20313v3.75c0,0.72917 0.04167,1.14063 0.125,1.23438c0.09375,0.08333 0.5,0.125 1.21875,0.125zM360.71561,164.11798h13.76563c0.71875,0 1.11458,-0.04687 1.1875,-0.14062c0.08333,-0.09375 0.125,-0.5 0.125,-1.21875v-3.25c0,-0.71875 -0.04167,-1.11979 -0.125,-1.20312c-0.07292,-0.09375 -0.46875,-0.14062 -1.1875,-0.14062h-13.76562c-0.71875,0 -1.125,0.04688 -1.21875,0.14063c-0.08333,0.08333 -0.125,0.48438 -0.125,1.20313v3.25c0,0.71875 0.04167,1.125 0.125,1.21875c0.09375,0.09375 0.5,0.14063 1.21875,0.14063zM386.34634,180.85235v-27.875h5.10938v22.73438h22.71875v5.14063zM421.70956,180.85235c-1.46875,0 -2.72917,-0.52604 -3.78125,-1.57812c-1.05208,-1.0625 -1.57812,-2.32812 -1.57812,-3.79687v-17.07812c0,-1.46875 0.52604,-2.72917 1.57813,-3.78125c1.05208,-1.0625 2.3125,-1.59375 3.78125,-1.59375h17.09375c1.46875,0 2.72917,0.53125 3.78125,1.59375c1.0625,1.05208 1.59375,2.3125 1.59375,3.78125v17.07813c0,1.46875 -0.53125,2.73438 -1.59375,3.79688c-1.05208,1.05208 -2.3125,1.57813 -3.78125,1.57813zM422.80331,175.71173h14.875c0.69792,0 1.09896,-0.04167 1.20313,-0.125c0.10417,-0.09375 0.15625,-0.50521 0.15625,-1.23437v-14.84375c0,-0.71875 -0.05208,-1.11979 -0.15625,-1.20312c-0.10417,-0.09375 -0.50521,-0.14062 -1.20312,-0.14062h-14.875c-0.72917,0 -1.14062,0.04688 -1.23437,0.14063c-0.08333,0.08333 -0.125,0.48438 -0.125,1.20313v14.84375c0,0.72917 0.04167,1.14063 0.125,1.23438c0.09375,0.08333 0.50521,0.125 1.23438,0.125zM453.79507,180.85235c-1.46875,0 -2.72917,-0.52604 -3.78125,-1.57812c-1.05208,-1.0625 -1.57812,-2.32812 -1.57812,-3.79687v-17.07812c0,-1.46875 0.52604,-2.72917 1.57813,-3.78125c1.05208,-1.0625 2.3125,-1.59375 3.78125,-1.59375h17.04688c1.5,0 2.77604,0.53125 3.82813,1.59375c1.0625,1.05208 1.59375,2.3125 1.59375,3.78125v2.15625h-5.14062v-1.04687c0,-0.71875 -0.05208,-1.11979 -0.15625,-1.20312c-0.10417,-0.09375 -0.50521,-0.14062 -1.20312,-0.14062h-14.875c-0.72917,0 -1.14062,0.04688 -1.23437,0.14063c-0.08333,0.08333 -0.125,0.48438 -0.125,1.20313v14.84375c0,0.72917 0.04167,1.14063 0.125,1.23438c0.09375,0.08333 0.50521,0.125 1.23438,0.125h14.875c0.69792,0 1.09896,-0.04167 1.20313,-0.125c0.10417,-0.09375 0.15625,-0.50521 0.15625,-1.23437v-4.125h-6.29687v-5.14062h11.4375v10.39063c0,1.46875 -0.53125,2.73438 -1.59375,3.79688c-1.05208,1.05208 -2.32812,1.57813 -3.82812,1.57813z" fill="#000000" fill-rule="nonzero" stroke="none" stroke-width="1" stroke-linecap="square" stroke-linejoin="miter"/></g></g></svg>