<svg version="1.1" viewBox="0.0 0.0 960.0 720.0" fill="none" stroke="none" stroke-linecap="square" stroke-miterlimit="10" xmlns:xlink="http://www.w3.org/1999/xlink" xmlns="http://www.w3.org/2000/svg"><clipPath id="p.0"><path d="m0 0l960.0 0l0 720.0l-960.0 0l0 -720.0z" clip-rule="nonzero"/></clipPath><g clip-path="url(#p.0)"><path fill="#000000" fill-opacity="0.0" d="m0 0l960.0 0l0 720.0l-960.0 0z" fill-rule="evenodd"/><path fill="#d9ead3" d="m219.81364 161.48819l99.9055 0l0 0l149.85828 0l349.66928 0l0 41.35695l0 0l0 17.724411l0 11.816284l-349.66928 0l-212.75479 31.165192l62.896515 -31.165192l-99.9055 0l0 -11.816284l0 -17.724411l0 0z" fill-rule="evenodd"/><path stroke="#b7b7b7" stroke-width="4.0" stroke-linejoin="round" stroke-linecap="butt" d="m219.81364 161.48819l99.9055 0l0 0l149.85828 0l349.66928 0l0 41.35695l0 0l0 17.724411l0 11.816284l-349.66928 0l-212.75479 31.165192l62.896515 -31.165192l-99.9055 0l0 -11.816284l0 -17.724411l0 0z" fill-rule="evenodd"/><path fill="#000000" fill-opacity="0.0" d="m227.50919 167.25197l645.98425 0l0 75.37007l-645.98425 0z" fill-rule="evenodd"/><path fill="#000000" d="m243.69669 213.37196q-2.203125 0 -3.765625 -1.5625q-1.5625 -1.5625 -1.5625 -3.765625l0 -0.859375l5.0625 0l0 0.234375q0 0.625 0.125 0.765625q0.140625 0.125 0.765625 0.125l10.859375 0q0.625 0 0.75 -0.125q0.140625 -0.140625 0.140625 -0.765625l0 -1.8125q0 -0.625 -0.140625 -0.75q-0.125 -0.140625 -0.75 -0.140625l-11.484375 0q-2.203125 0 -3.765625 -1.578125q-1.5625 -1.59375 -1.5625 -3.765625l0 -3.09375q0 -2.203125 1.5625 -3.765625q1.5625 -1.5625 3.765625 -1.5625l12.109375 0q2.203125 0 3.78125 1.5625q1.578125 1.5625 1.578125 3.765625l0 0.859375l-5.09375 0l0 -0.234375q0 -0.625 -0.140625 -0.75q-0.125 -0.140625 -0.75 -0.140625l-10.859375 0q-0.625 0 -0.765625 0.140625q-0.125 0.125 -0.125 0.75l0 1.8125q0 0.625 0.125 0.765625q0.140625 0.125 0.765625 0.125l11.484375 0q2.203125 0 3.78125 1.59375q1.578125 1.578125 1.578125 3.75l0 3.09375q0 2.203125 -1.578125 3.765625q-1.578125 1.5625 -3.78125 1.5625l-12.109375 0zm21.346313 0l0 -22.421875l5.0625 0l0 22.421875l-5.0625 0zm0 -24.65625l0 -5.109375l5.0625 0l0 5.109375l-5.0625 0zm9.393677 24.65625l0 -17.09375q0 -2.203125 1.5625 -3.765625q1.5625 -1.5625 3.765625 -1.5625l12.453125 0l0 5.0625l-11.375 0q-1.078125 0 -1.21875 0.140625q-0.125 0.125 -0.125 1.21875l0 16.0l-5.0625 0zm25.552765 0q-2.203125 0 -3.78125 -1.5625q-1.5625 -1.5625 -1.5625 -3.765625l0 -11.765625q0 -2.203125 1.5625 -3.765625q1.578125 -1.5625 3.78125 -1.5625l12.09375 0q2.203125 0 3.765625 1.5625q1.5625 1.5625 1.5625 3.765625l0 11.765625q0 2.203125 -1.5625 3.765625q-1.5625 1.5625 -3.765625 1.5625l-12.09375 0zm1.078125 -5.0625l9.9375 0q1.078125 0 1.203125 -0.125q0.140625 -0.140625 0.140625 -1.234375l0 -9.578125q0 -1.09375 -0.140625 -1.21875q-0.125 -0.140625 -1.203125 -0.140625l-9.9375 0q-1.078125 0 -1.21875 0.140625q-0.140625 0.125 -0.140625 1.21875l0 9.578125q0 1.09375 0.140625 1.234375q0.140625 0.125 1.21875 0.125zm20.453247 5.0625l0 -29.765625l5.0625 0l0 16.0l3.984375 0l8.0 -8.65625l5.40625 0l0 1.390625l-8.9375 9.828125l8.90625 9.8125l0 1.390625l-5.375 0l-8.0 -8.65625l-3.984375 0l0 8.65625l-5.0625 0zm30.268799 0q-2.203125 0 -3.78125 -1.5625q-1.5625 -1.5625 -1.5625 -3.765625l0 -17.09375l5.0625 0l0 16.0q0 1.09375 0.140625 1.234375q0.140625 0.125 1.21875 0.125l9.9375 0q1.078125 0 1.203125 -0.125q0.140625 -0.140625 0.140625 -1.234375l0 -16.0l5.0625 0l0 17.09375q0 2.203125 -1.5625 3.765625q-1.5625 1.5625 -3.765625 1.5625l-12.09375 0zm21.491089 0l0 -17.09375q0 -2.203125 1.5625 -3.765625q1.5625 -1.5625 3.765625 -1.5625l12.453125 0l0 5.0625l-11.375 0q-1.078125 0 -1.21875 0.140625q-0.125 0.125 -0.125 1.21875l0 16.0l-5.0625 0zm25.552765 0q-2.203125 0 -3.78125 -1.5625q-1.5625 -1.5625 -1.5625 -3.765625l0 -11.765625q0 -2.203125 1.5625 -3.765625q1.578125 -1.5625 3.78125 -1.5625l12.09375 0q2.203125 0 3.765625 1.5625q1.5625 1.5625 1.5625 3.765625l0 11.765625q0 2.203125 -1.5625 3.765625q-1.5625 1.5625 -3.765625 1.5625l-12.09375 0zm1.078125 -5.0625l9.9375 0q1.078125 0 1.203125 -0.125q0.140625 -0.140625 0.140625 -1.234375l0 -9.578125q0 -1.09375 -0.140625 -1.21875q-0.125 -0.140625 -1.203125 -0.140625l-9.9375 0q-1.078125 0 -1.21875 0.140625q-0.140625 0.125 -0.140625 1.21875l0 9.578125q0 1.09375 0.140625 1.234375q0.140625 0.125 1.21875 0.125zm20.453247 5.0625l0 -29.765625l5.0625 0l0 16.0l3.984375 0l8.0 -8.65625l5.40625 0l0 1.390625l-8.9375 9.828125l8.90625 9.8125l0 1.390625l-5.375 0l-8.0 -8.65625l-3.984375 0l0 8.65625l-5.0625 0zm30.268799 0q-2.203125 0 -3.78125 -1.5625q-1.5625 -1.5625 -1.5625 -3.765625l0 -17.09375l5.0625 0l0 16.0q0 1.09375 0.140625 1.234375q0.140625 0.125 1.21875 0.125l9.9375 0q1.078125 0 1.203125 -0.125q0.140625 -0.140625 0.140625 -1.234375l0 -16.0l5.0625 0l0 17.09375q0 2.203125 -1.5625 3.765625q-1.5625 1.5625 -3.765625 1.5625l-12.09375 0zm20.60254 0l0 -22.421875l27.78125 0q2.203125 0 3.765625 1.5625q1.578125 1.5625 1.578125 3.765625l0 17.09375l-5.03125 0l0 -16.0q0 -1.09375 -0.15625 -1.21875q-0.15625 -0.140625 -1.1875 -0.140625l-6.265625 0q-1.078125 0 -1.21875 0.140625q-0.140625 0.125 -0.140625 1.21875l0 16.0l-5.09375 0l0 -16.0q0 -1.09375 -0.140625 -1.21875q-0.140625 -0.140625 -1.21875 -0.140625l-6.265625 0q-1.078125 0 -1.21875 0.140625q-0.125 0.125 -0.125 1.21875l0 16.0l-5.0625 0zm42.243805 0q-2.203125 0 -3.765625 -1.5625q-1.5625 -1.5625 -1.5625 -3.765625l0 -8.4375l17.703125 0l0 -2.234375q0 -1.09375 -0.140625 -1.21875q-0.140625 -0.140625 -1.21875 -0.140625l-16.34375 0l0 -5.0625l17.421875 0q2.203125 0 3.765625 1.5625q1.578125 1.5625 1.578125 3.765625l0 17.09375l-17.4375 0zm1.078125 -5.0625l11.296875 0l0 -4.140625l-12.640625 0l0 2.78125q0 1.09375 0.125 1.234375q0.140625 0.125 1.21875 0.125zm24.742432 5.0625q-2.203125 0 -3.765625 -1.5625q-1.5625 -1.5625 -1.5625 -3.765625l0 -0.859375l5.0625 0l0 0.234375q0 0.625 0.125 0.765625q0.140625 0.125 0.765625 0.125l10.859375 0q0.625 0 0.75 -0.125q0.140625 -0.140625 0.140625 -0.765625l0 -1.8125q0 -0.625 -0.140625 -0.75q-0.125 -0.140625 -0.75 -0.140625l-11.484375 0q-2.203125 0 -3.765625 -1.578125q-1.5625 -1.59375 -1.5625 -3.765625l0 -3.09375q0 -2.203125 1.5625 -3.765625q1.5625 -1.5625 3.765625 -1.5625l12.109375 0q2.203125 0 3.78125 1.5625q1.578125 1.5625 1.578125 3.765625l0 0.859375l-5.09375 0l0 -0.234375q0 -0.625 -0.140625 -0.75q-0.125 -0.140625 -0.75 -0.140625l-10.859375 0q-0.625 0 -0.765625 0.140625q-0.125 0.125 -0.125 0.75l0 1.8125q0 0.625 0.125 0.765625q0.140625 0.125 0.765625 0.125l11.484375 0q2.203125 0 3.78125 1.59375q1.578125 1.578125 1.578125 3.75l0 3.09375q0 2.203125 -1.578125 3.765625q-1.578125 1.5625 -3.78125 1.5625l-12.109375 0zm26.674438 0q-2.203125 0 -3.765625 -1.5625q-1.5625 -1.5625 -1.5625 -3.765625l0 -8.4375l17.703125 0l0 -2.234375q0 -1.09375 -0.140625 -1.21875q-0.140625 -0.140625 -1.21875 -0.140625l-16.34375 0l0 -5.0625l17.421875 0q2.203125 0 3.765625 1.5625q1.578125 1.5625 1.578125 3.765625l0 17.09375l-17.4375 0zm1.078125 -5.0625l11.296875 0l0 -4.140625l-12.640625 0l0 2.78125q0 1.09375 0.125 1.234375q0.140625 0.125 1.21875 0.125zm20.073975 5.0625l0 -22.421875l17.421875 0q2.203125 0 3.765625 1.5625q1.578125 1.5625 1.578125 3.765625l0 17.09375l-5.0625 0l0 -16.0q0 -1.09375 -0.140625 -1.21875q-0.140625 -0.140625 -1.21875 -0.140625l-9.9375 0q-1.078125 0 -1.21875 0.140625q-0.125 0.125 -0.125 1.21875l0 16.0l-5.0625 0zm26.904724 -17.625l0 -9.859375l5.0625 0l0 4.515625q0 1.9375 -1.453125 3.4375q-1.453125 1.484375 -3.609375 1.90625zm13.443481 17.625q-2.203125 0 -3.765625 -1.5625q-1.5625 -1.5625 -1.5625 -3.765625l0 -0.859375l5.0625 0l0 0.234375q0 0.625 0.125 0.765625q0.140625 0.125 0.765625 0.125l10.859375 0q0.625 0 0.75 -0.125q0.140625 -0.140625 0.140625 -0.765625l0 -1.8125q0 -0.625 -0.140625 -0.75q-0.125 -0.140625 -0.75 -0.140625l-11.484375 0q-2.203125 0 -3.765625 -1.578125q-1.5625 -1.59375 -1.5625 -3.765625l0 -3.09375q0 -2.203125 1.5625 -3.765625q1.5625 -1.5625 3.765625 -1.5625l12.109375 0q2.203125 0 3.78125 1.5625q1.578125 1.5625 1.578125 3.765625l0 0.859375l-5.09375 0l0 -0.234375q0 -0.625 -0.140625 -0.75q-0.125 -0.140625 -0.75 -0.140625l-10.859375 0q-0.625 0 -0.765625 0.140625q-0.125 0.125 -0.125 0.75l0 1.8125q0 0.625 0.125 0.765625q0.140625 0.125 0.765625 0.125l11.484375 0q2.203125 0 3.78125 1.59375q1.578125 1.578125 1.578125 3.75l0 3.09375q0 2.203125 -1.578125 3.765625q-1.578125 1.5625 -3.78125 1.5625l-12.109375 0zm33.440735 0l0 -27.828125l21.34375 0q2.203125 0 3.78125 1.59375q1.578125 1.578125 1.578125 3.78125l0 5.4375q0 0.515625 -0.078125 0.984375q-0.0625 0.453125 -0.265625 0.875q0.65625 0.890625 1.0625 1.859375q0.40625 0.96875 0.40625 1.9375l0 5.984375q0 2.203125 -1.59375 3.796875q-1.578125 1.578125 -3.8125 1.578125l-22.421875 0zm6.453125 -5.140625l14.890625 0q1.03125 0 1.1875 -0.125q0.15625 -0.140625 0.15625 -1.234375l0 -3.75q0 -1.078125 -0.15625 -1.203125q-0.15625 -0.140625 -1.1875 -0.140625l-14.890625 0q-1.078125 0 -1.21875 0.140625q-0.125 0.125 -0.125 1.203125l0 3.75q0 1.09375 0.125 1.234375q0.140625 0.125 1.21875 0.125zm0 -11.59375l13.765625 0q1.078125 0 1.1875 -0.140625q0.125 -0.140625 0.125 -1.21875l0 -3.25q0 -1.078125 -0.125 -1.203125q-0.109375 -0.140625 -1.1875 -0.140625l-13.765625 0q-1.078125 0 -1.21875 0.140625q-0.125 0.125 -0.125 1.203125l0 3.25q0 1.078125 0.125 1.21875q0.140625 0.140625 1.21875 0.140625zm25.630737 16.734375l0 -27.875l5.109375 0l0 22.734375l22.71875 0l0 5.140625l-27.828125 0zm35.36322 0q-2.203125 0 -3.78125 -1.578125q-1.578125 -1.59375 -1.578125 -3.796875l0 -17.078125q0 -2.203125 1.578125 -3.78125q1.578125 -1.59375 3.78125 -1.59375l17.09375 0q2.203125 0 3.78125 1.59375q1.59375 1.578125 1.59375 3.78125l0 17.078125q0 2.203125 -1.59375 3.796875q-1.578125 1.578125 -3.78125 1.578125l-17.09375 0zm1.09375 -5.140625l14.875 0q1.046875 0 1.203125 -0.125q0.15625 -0.140625 0.15625 -1.234375l0 -14.84375q0 -1.078125 -0.15625 -1.203125q-0.15625 -0.140625 -1.203125 -0.140625l-14.875 0q-1.09375 0 -1.234375 0.140625q-0.125 0.125 -0.125 1.203125l0 14.84375q0 1.09375 0.125 1.234375q0.140625 0.125 1.234375 0.125zm30.99176 5.140625q-2.203125 0 -3.78125 -1.578125q-1.578125 -1.59375 -1.578125 -3.796875l0 -17.078125q0 -2.203125 1.578125 -3.78125q1.578125 -1.59375 3.78125 -1.59375l17.046875 0q2.25 0 3.828125 1.59375q1.59375 1.578125 1.59375 3.78125l0 2.15625l-5.140625 0l0 -1.046875q0 -1.078125 -0.15625 -1.203125q-0.15625 -0.140625 -1.203125 -0.140625l-14.875 0q-1.09375 0 -1.234375 0.140625q-0.125 0.125 -0.125 1.203125l0 14.84375q0 1.09375 0.125 1.234375q0.140625 0.125 1.234375 0.125l14.875 0q1.046875 0 1.203125 -0.125q0.15625 -0.140625 0.15625 -1.234375l0 -4.125l-6.296875 0l0 -5.140625l11.4375 0l0 10.390625q0 2.203125 -1.59375 3.796875q-1.578125 1.578125 -3.828125 1.578125l-17.046875 0z" fill-rule="nonzero"/></g></svg>